# xmcd
#
# Track frame offsets:
# 150
# 15208
# 31469
# 50193
# 67575
# 83315
# 105763
# 125213
# 145494
# 162846
# 185894
# 203276
#
# Disc length: 3062 seconds
#
#
# Revision: 0
# Processed by: cddbd v1.5PL3 Copyright (c) Steve Scherf et al.
# Submitted via: FreeRIP 2.53 
#
DISCID=920bf40c
DTITLE=Hill, Faith - Faith
DYEAR=1900
DGENRE=
TTITLE0=This Kiss
TTITLE1=You Give Me Love
TTITLE2=Let Me Let Go
TTITLE3=Love Ain't Like That
TTITLE4=Better Days
TTITLE5=My Wild Frontier
TTITLE6=The Secret Of Life
TTITLE7=Just To Hear You Say That Yoou Love Me
TTITLE8=Me
TTITLE9=I Love You
TTITLE10=The Hard Way
TTITLE11=Somebody Stand By Me
EXTD=
EXTT0=
EXTT1=
EXTT2=
EXTT3=
EXTT4=
EXTT5=
EXTT6=
EXTT7=
EXTT8=
EXTT9=
EXTT10=
EXTT11=
PLAYORDER=
